<mxfile host="Electron" modified="2023-11-14T21:01:57.372Z" agent="Mozilla/5.0 (X11; Linux x86_64) AppleWebKit/537.36 (KHTML, like Gecko) draw.io/21.3.7 Chrome/112.0.5615.204 Electron/24.5.0 Safari/537.36" etag="Pn7cNz-WTGGPK62NiiTO" version="21.3.7" type="device">
  <diagram name="PÃ¡gina-1" id="hSTydEEdkh6b1D-wO3yT">
    <mxGraphModel dx="1050" dy="641" grid="1" gridSize="10" guides="1" tooltips="1" connect="1" arrows="1" fold="1" page="1" pageScale="1" pageWidth="827" pageHeight="1169" math="0" shadow="0">
      <root>
        <mxCell id="0" />
        <mxCell id="1" parent="0" />
      </root>
    </mxGraphModel>
  </diagram>
</mxfile>
